<svg width="256" height="256" viewBox="0 0 256 256" fill="none" xmlns="http://www.w3.org/2000/svg">
  <defs>
    <linearGradient id="aeroBg" x1="24" y1="20" x2="232" y2="236" gradientUnits="userSpaceOnUse">
      <stop stop-color="#0F2A4A"/>
      <stop offset="1" stop-color="#2E9CDB"/>
    </linearGradient>
    <linearGradient id="aeroGlow" x1="40" y1="36" x2="196" y2="192" gradientUnits="userSpaceOnUse">
      <stop stop-color="#FFFFFF" stop-opacity="0.95"/>
      <stop offset="1" stop-color="#CFEAFB" stop-opacity="0.84"/>
    </linearGradient>
  </defs>

  <rect x="10" y="10" width="236" height="236" rx="56" fill="url(#aeroBg)"/>
  <rect x="24" y="24" width="208" height="208" rx="44" fill="white" fill-opacity="0.06" stroke="white" stroke-opacity="0.22"/>
  <circle cx="128" cy="126" r="72" fill="white" fill-opacity="0.05" stroke="white" stroke-opacity="0.18"/>

  <path d="M55 142L98 98L118 67L128 98L159 81L167 94L136 117L118 140L113 164L98 151L84 141L69 140L55 142Z" fill="url(#aeroGlow)"/>
  <path d="M82 165H166" stroke="url(#aeroGlow)" stroke-width="9" stroke-linecap="round" opacity="0.92"/>
  <path d="M53 117H80" stroke="white" stroke-width="8" stroke-linecap="round" opacity="0.7"/>
  <path d="M64 145H110" stroke="white" stroke-width="6" stroke-linecap="round" opacity="0.6"/>
  <path d="M135 132L181 99" stroke="white" stroke-width="7" stroke-linecap="round" opacity="0.38"/>
</svg>
